<?xml version="1.0" standalone="no"?>
<!DOCTYPE svg PUBLIC "-//W3C//DTD SVG 20010904//EN"
 "http://www.w3.org/TR/2001/REC-SVG-20010904/DTD/svg10.dtd">
<svg version="1.0" xmlns="http://www.w3.org/2000/svg"
 width="292.000000pt" height="208.000000pt" viewBox="0 0 292.000000 208.000000"
 preserveAspectRatio="xMidYMid meet">

<g transform="translate(0.000000,208.000000) scale(0.100000,-0.100000)"
fill="#000000" stroke="none">
<path d="M578 1829 l-318 -159 0 -494 0 -495 52 -29 c67 -37 199 -107 306
-162 l82 -42 0 -54 c0 -60 17 -103 59 -147 70 -75 216 -81 286 -10 20 19 -1
28 295 -129 144 -76 176 -87 195 -69 6 4 69 39 140 76 72 37 159 84 194 103
51 28 67 33 80 24 54 -39 99 -55 152 -55 64 1 101 17 145 65 45 48 54 69 54
135 0 58 1 60 38 79 20 10 121 63 225 117 l187 98 -1 357 c-1 196 -4 419 -8
496 l-6 138 -319 160 -318 160 -82 -42 c-44 -24 -140 -74 -213 -112 l-131 -69
-47 33 c-43 31 -53 33 -125 33 -74 0 -80 -2 -120 -34 l-43 -34 -131 68 c-72
37 -167 87 -212 111 -45 24 -85 44 -90 43 -5 0 -152 -72 -326 -160z m452 16
c69 -36 157 -82 195 -101 l70 -37 0 -67 0 -67 -110 -57 c-60 -31 -158 -82
-217 -113 l-108 -57 0 -371 0 -372 -39 -18 c-22 -10 -50 -28 -62 -41 -12 -13
-27 -24 -32 -24 -6 0 -97 46 -204 102 l-193 102 0 451 1 450 282 142 c155 78
284 142 287 143 3 0 61 -29 130 -65z m1355 -77 l285 -143 0 -175 c0 -96 3
-297 7 -445 l6 -271 -24 -15 c-13 -9 -96 -53 -184 -99 -88 -46 -164 -87 -169
-91 -18 -16 -38 -10 -74 22 -19 17 -48 36 -63 41 l-29 10 -2 375 -3 375 -210
108 -210 109 -6 68 c-3 37 -5 68 -5 69 1 0 42 21 91 47 50 25 137 71 195 101
58 31 106 56 107 56 2 0 131 -64 288 -142z m-845 12 c39 -11 81 -44 98 -77 19
-35 15 -124 -8 -160 -22 -38 -86 -73 -130 -73 -44 0 -108 35 -130 73 -23 36
-27 125 -8 160 16 32 58 66 93 76 41 12 45 12 85 1z m-109 -345 l34 -12 3
-267 2 -266 -29 -6 c-44 -9 -110 -71 -133 -123 -12 -28 -18 -63 -16 -90 l2
-45 -107 -53 -107 -53 -32 31 c-18 16 -52 35 -75 42 l-43 11 0 348 0 347 83
44 c45 24 134 71 197 104 l114 61 37 -31 c20 -17 52 -36 70 -42z m547 -85 c46
-23 85 -48 87 -54 2 -6 6 -163 9 -349 5 -314 4 -338 -12 -343 -53 -17 -79 -31
-108 -56 l-31 -28 -107 52 -106 52 0 52 c0 28 -7 67 -15 87 -17 40 -96 114
-128 119 -22 3 -22 4 -25 275 l-2 271 29 7 c16 3 46 21 67 40 l39 33 110 -58
c61 -31 147 -77 193 -100z m-414 -524 c18 -8 45 -29 60 -48 21 -29 26 -45 26
-95 0 -56 -3 -64 -39 -104 l-39 -44 -72 0 -72 0 -39 44 c-36 40 -39 48 -39
104 0 50 5 66 26 95 45 58 119 77 188 48z m-154 -332 c23 -12 56 -18 97 -18
63 0 92 12 143 60 l25 23 107 -51 106 -50 0 -57 c0 -31 1 -63 3 -70 4 -15 -43
-43 -283 -168 l-108 -56 -62 33 c-35 18 -85 45 -113 60 -27 15 -86 46 -131 69
l-81 43 1 73 1 74 105 50 105 50 25 -23 c14 -13 41 -32 60 -42z m-421 29 c98
-73 94 -207 -8 -267 -98 -57 -231 18 -231 131 0 67 39 127 100 152 36 15 108
7 139 -16z m1186 2 c56 -32 79 -80 73 -152 -4 -44 -11 -60 -38 -89 -76 -78
-201 -60 -250 37 -72 141 79 284 215 204z"/>
</g>
</svg>
